<?xml version="1.0" encoding="UTF-8" standalone="no"?>
<!-- Created with Inkscape (http://www.inkscape.org/) -->

<svg
   xmlns:dc="http://purl.org/dc/elements/1.1/"
   xmlns:cc="http://creativecommons.org/ns#"
   xmlns:rdf="http://www.w3.org/1999/02/22-rdf-syntax-ns#"
   xmlns:svg="http://www.w3.org/2000/svg"
   xmlns="http://www.w3.org/2000/svg"
   xmlns:sodipodi="http://sodipodi.sourceforge.net/DTD/sodipodi-0.dtd"
   xmlns:inkscape="http://www.inkscape.org/namespaces/inkscape"
   width="29"
   height="29"
   id="svg2992"
   version="1.1"
   inkscape:version="0.91 r13725"
   sodipodi:docname="help.svg">
  <defs
     id="defs2994" />
  <sodipodi:namedview
     id="base"
     pagecolor="#ffffff"
     bordercolor="#666666"
     borderopacity="1.0"
     inkscape:pageopacity="0.0"
     inkscape:pageshadow="2"
     inkscape:zoom="16"
     inkscape:cx="24.227788"
     inkscape:cy="1.188671"
     inkscape:document-units="px"
     inkscape:current-layer="text4138"
     showgrid="true"
     inkscape:snap-nodes="true"
     guidetolerance="10000"
     objecttolerance="10000"
     inkscape:object-nodes="false"
     inkscape:window-width="2560"
     inkscape:window-height="1377"
     inkscape:window-x="1912"
     inkscape:window-y="-8"
     inkscape:window-maximized="1"
     inkscape:snap-others="false"
     inkscape:snap-bbox="true"
     inkscape:object-paths="true"
     inkscape:snap-smooth-nodes="false"
     inkscape:snap-midpoints="false">
    <inkscape:grid
       type="xygrid"
       id="grid3000"
       empspacing="5"
       visible="true"
       enabled="true"
       snapvisiblegridlinesonly="true" />
  </sodipodi:namedview>
  <metadata
     id="metadata2997">
    <rdf:RDF>
      <cc:Work
         rdf:about="">
        <dc:format>image/svg+xml</dc:format>
        <dc:type
           rdf:resource="http://purl.org/dc/dcmitype/StillImage" />
        <dc:title></dc:title>
      </cc:Work>
    </rdf:RDF>
  </metadata>
  <g
     inkscape:label="Capa 1"
     inkscape:groupmode="layer"
     id="layer1"
     transform="translate(0,-1023.3622)">
    <g
       style="font-style:normal;font-weight:normal;font-size:22.05649185px;line-height:125%;font-family:sans-serif;letter-spacing:0px;word-spacing:0px;fill:#2f4b59;fill-opacity:1;stroke:none;stroke-width:1px;stroke-linecap:butt;stroke-linejoin:miter;stroke-opacity:1"
       id="text4138">
      <path
         inkscape:connector-curvature="0"
         d="m 13.169933,1040.8388 q 0.02154,-1.2816 0.290784,-2.0247 0.269244,-0.7431 1.098517,-1.6478 l 1.41084,-1.4539 q 0.904661,-1.0232 0.904661,-2.1971 0,-1.1308 -0.592338,-1.7662 -0.592337,-0.6462 -1.723163,-0.6462 -1.098517,0 -1.766243,0.5816 -0.667726,0.5816 -0.667726,1.5616 l -1.992407,0 q 0.02154,-1.7447 1.238523,-2.8109 1.227754,-1.077 3.187853,-1.077 2.035486,0 3.166312,1.0985 1.141596,1.0878 1.141596,2.994 0,1.8847 -1.744703,3.7156 l -1.173905,1.1631 q -0.786193,0.8724 -0.786193,2.5094 l -1.992408,0 z m -0.08616,3.414 q 0,-0.4846 0.290784,-0.8077 0.301553,-0.3339 0.883121,-0.3339 0.581568,0 0.883121,0.3339 0.301554,0.3231 0.301554,0.8077 0,0.4846 -0.301554,0.8077 -0.301553,0.3124 -0.883121,0.3124 -0.581568,0 -0.883121,-0.3124 -0.290784,-0.3231 -0.290784,-0.8077 z"
         style="font-style:normal;font-variant:normal;font-weight:normal;font-stretch:normal;font-size:22.05649185px;line-height:125%;font-family:Roboto;-inkscape-font-specification:Roboto;letter-spacing:0px;word-spacing:0px;fill:#2f4b59;fill-opacity:1;stroke:none;stroke-width:1px;stroke-linecap:butt;stroke-linejoin:miter;stroke-opacity:1"
         id="path4143" />
    </g>
  </g>
</svg>
