<?xml version="1.0" encoding="UTF-8" standalone="no"?>
<!-- Created with Inkscape (http://www.inkscape.org/) -->
<svg xmlns:dc="http://purl.org/dc/elements/1.1/" xmlns:cc="http://creativecommons.org/ns#" xmlns:rdf="http://www.w3.org/1999/02/22-rdf-syntax-ns#" xmlns:svg="http://www.w3.org/2000/svg" xmlns="http://www.w3.org/2000/svg" xmlns:sodipodi="http://sodipodi.sourceforge.net/DTD/sodipodi-0.dtd" xmlns:inkscape="http://www.inkscape.org/namespaces/inkscape" width="28" height="40" viewBox="0 0 27.999998 40" id="svg2" version="1.1" inkscape:version="0.91 r13725" sodipodi:docname="open_hand_old2.svg" inkscape:export-filename="C:\projects\EDITOR\resources-editor\decoration\open_hand.png" inkscape:export-xdpi="17.49" inkscape:export-ydpi="17.49">
  <defs id="defs4">
    <inkscape:path-effect effect="bend_path" id="path-effect5215" is_visible="true" bendpath="M 111.03317,245.05487 100.30585,234.27803" prop_scale="1" scale_y_rel="false" vertical="false"/>
    <inkscape:path-effect effect="envelope" id="path-effect5134" is_visible="true" yy="true" xx="true" bendpath1="m 84.052228,215.83428 44.723902,0" bendpath2="m 128.77613,215.83428 0,43.62722" bendpath3="m 84.052228,259.4615 44.723902,0" bendpath4="m 84.052228,215.83428 0,43.62722"/>
    <pattern patternUnits="userSpaceOnUse" width="44.723898" height="43.627218" patternTransform="translate(84.052228,215.83428)" id="pattern4154">
      <path id="path3" d="m 17.356712,30.099536 c 0,0 0,0 0,0 0,0 0,0 0,0 l -4.817252,-4.81724 c -0.661761,-0.66176 -1.741991,-0.67149 -2.413481,0 -0.66177,0.66176 -0.6715,1.742 0,2.41349 l 4.817242,4.81724 c 0.66176,0.66177 0.67149,1.742 0,2.41349 -0.66176,0.66177 -1.741991,0.67149 -2.413491,0 0,0 0,0 0,0 0,0 0,0 0,0 l -4.817243,-4.81724 c -0.661763,-0.66177 -1.741993,-0.67149 -2.413488,0 l 0,0 c -0.661762,0.66176 -0.671493,1.74199 0,2.41349 l 4.81724,4.81724 c 0.66177,0.66176 0.6715,1.74199 0,2.41349 -0.67149,0.67149 -1.732257,0.6423 -2.39402,-0.0195 l -3.406132,-3.40609 -1.411111,-1.41111 c -0.661763,-0.66176 -1.741995,-0.67149 -2.413489,0 -0.661763,0.66176 -0.652031,1.742 0.0097,2.40376 l 4.914562,4.91456 0,0 c 2.004752,1.88797 5.14813,1.85878 7.113951,-0.10705 0.92452,-0.92452 1.42084,-2.12153 1.47923,-3.32828 1.216481,-0.0681 2.403762,-0.55471 3.328282,-1.47923 1.9561,-1.9561 1.99502,-5.1092 0.10705,-7.11395 l 0,0 -0.0973,-0.0973 z M 12.53946,18.061296 c -0.661761,-0.66176 -1.741991,-0.67149 -2.413481,0 -0.66177,0.66176 -0.6715,1.742 0,2.41349 0.66176,0.66176 1.74199,0.67149 2.413481,0 0.6715,-0.67149 0.66177,-1.75173 0,-2.41349 M 25.784452,4.8163061 c -0.66176,-0.66176 -1.74199,-0.67149 -2.41349,0 -0.66176,0.66177 -0.67149,1.742 0,2.41349 0.66177,0.66177 1.742,0.67149 2.41349,0 0.66177,-0.66176 0.66177,-1.75172 0,-2.41349 m 12.76813,-4.35984004 c -0.98291,-0.98292 -3.28935,-0.31142 -4.97295,1.37218004 -2.06314,2.06314 -2.31617,4.78805 -0.60337,6.50085 0.73962,0.73961 1.77119,1.10942 2.65678,0.98291 0.6131,-0.10706 1.52789,-0.43793 2.63732,-0.96345 l 0.97318,-0.4282 c 0.91479,-0.4282 1.52789,-0.49632 1.83932,-0.1849 0.39899,0.399 0.29194,1.10942 -0.2433,1.64467 -0.33088,0.33088 -0.96345,0.6909599 -1.65441,0.8953299 0,0 -0.6423,0.17517 -0.74935,0.20437 -0.6131,0.20436 -0.8564,0.36981 -1.08023,0.59363 -0.32115,0.32116 -0.46712,0.73962 -0.44766,1.16782 l 0,0 c 0.01,0.399 -0.13625,0.81747 -0.43793,1.11916 -0.59364,0.59364 -1.54736,0.59364 -2.141,0 l -3.30882,-3.30882 -1.62521,-1.6252099 c -0.66176,-0.66176 -1.74199,-0.67149 -2.41349,0 -0.66176,0.66177 -0.67149,1.7419999 0,2.4134899 l 4.81725,4.81725 c 0.66176,0.66176 0.6715,1.74199 0,2.41348 -0.66176,0.66177 -1.74199,0.6715 -2.41349,0 l -3.70782,-3.70782 -0.30168,-0.30168 c 0.25302,-0.62283 0.12651,-1.35272 -0.36981,-1.84904 -0.66176,-0.66177 -1.742,-0.6715 -2.41349,0 -0.11678,0.11678 -0.26276,0.34061 -0.25302,0.33088 l 0,0 c -1.15809,1.8977 -2.55947,3.68835 -4.19442,5.34276 -0.01,0.01 -0.0292,0.0292 -0.0389,0.0389 -0.66176,0.66177 -0.67149,1.742 0,2.41349 0.49633,0.49632 1.23594,0.63257 1.84905,0.36981 l 3.40613,3.40613 c 0.66176,0.66177 0.67149,1.74199 0,2.41349 -0.66177,0.66177 -1.74199,0.67149 -2.41349,0 l -3.40613,-3.40613 -1.42085,-1.42085 c -0.661761,-0.66176 -1.741991,-0.67149 -2.413482,0 -0.66177,0.66177 -0.6715,1.742 0,2.41349 l 4.914562,4.91456 0,0 c 2.00475,1.88797 5.14812,1.85878 7.11395,-0.10705 1.9561,-1.95609 1.99502,-5.1092 0.10705,-7.11395 l 0,0 -0.10705,-0.10705 c 0,0 0,0 0,0 0,0 0,0 0,0 l -3.38667,-3.38666 c -0.0876,0.10705 0.6423,-0.77855 1.0705,-1.34299 l 0,0 3.62996,3.62996 0,0 c 2.00476,1.88797 5.14813,1.85877 7.11395,-0.10705 0.90506,-0.90506 1.40139,-2.06314 1.47924,-3.25043 1.16782,-0.0584 2.31617,-0.54498 3.20176,-1.43057 0.65204,-0.65203 1.08023,-1.43057 1.2846,-2.25778 0.94399,-0.34061 1.93663,-0.96345 2.7833,-1.81012 2.1118,-2.1117999 2.42321,-4.8561599 0.69096,-6.5884299 -0.82721,-0.8272 -2.02422,-1.16781 -3.24069,-0.90505 -0.73962,0.19463 -1.32353,0.38927 -2.60813,0.95371 -1.65441,0.72016 -2.02421,0.81747 -2.40375,0.43793 -0.33088,-0.33088 -0.22384,-0.90505 0.24329,-1.37218 0.29196,-0.29196 0.92452,-0.69096 1.56682,-0.94399 l 0.67149,-0.26275 c 0.26276,-0.0876 0.54498,-0.2725 0.72016,-0.44767 0.62284,-0.60337 0.58391,-1.57655 0,-2.16046004" style="fill:#ffffff" inkscape:connector-curvature="0"/>
    </pattern>
  </defs>
  <sodipodi:namedview id="base" pagecolor="#ffffff" bordercolor="#666666" borderopacity="1.0" inkscape:pageopacity="0.0" inkscape:pageshadow="2" inkscape:zoom="32" inkscape:cx="8.9465131" inkscape:cy="10.810691" inkscape:document-units="px" inkscape:current-layer="layer1" showgrid="true" guidetolerance="10000" inkscape:object-nodes="true" fit-margin-top="1" fit-margin-left="1" fit-margin-right="1" fit-margin-bottom="1" inkscape:window-width="1920" inkscape:window-height="1027" inkscape:window-x="-8" inkscape:window-y="-8" inkscape:window-maximized="1" inkscape:snap-smooth-nodes="true" inkscape:snap-grids="false" inkscape:snap-global="false" units="px" inkscape:object-paths="true" inkscape:snap-intersection-paths="true" inkscape:snap-midpoints="true" inkscape:snap-bbox="false">
    <inkscape:grid type="xygrid" id="grid3336" originx="-29.726514" originy="-692.82986"/>
  </sodipodi:namedview>
  <metadata id="metadata7">
    <rdf:RDF>
      <cc:Work rdf:about="">
        <dc:format>image/svg+xml</dc:format>
        <dc:type rdf:resource="http://purl.org/dc/dcmitype/StillImage"/>
        <dc:title/>
      </cc:Work>
    </rdf:RDF>
  </metadata>
  <g inkscape:label="Capa 1" inkscape:groupmode="layer" id="layer1" transform="translate(-29.726514,-319.53237)">
    <g id="g4142" transform="matrix(0.14561515,0,0,0.14561515,29.656496,300.17917)">
      <path sodipodi:nodetypes="cssssc" inkscape:connector-curvature="0" id="path4142" d="m 64.488011,320.34222 c -1.327238,-3.61737 4.592207,0.69216 2.54074,-23.9592 -1.858151,-22.32838 -7.73228,-21.20244 -7.619871,-31.75393 0.272968,-25.62275 80.51434,-22.94691 80.68046,-49.11886 0.14561,-22.94119 -99.720743,-7.05061 -99.868852,-35.89922 C 40.080622,152.36772 155.2224,139.55965 155.2224,139.55965" style="fill:none;fill-opacity:1;fill-rule:evenodd;stroke:#f0f0f0;stroke-width:8.58427162;stroke-linecap:round;stroke-linejoin:miter;stroke-miterlimit:4;stroke-dasharray:none;stroke-opacity:1"/>
      <path inkscape:connector-curvature="0" class="st0" d="m 75.927824,321.03128 0,0 0,0 c 0,-0.15464 0,0 0,0 m 25.998046,0 0,0 c 0,0 0,-0.15464 0,0 z m 39.10755,-1.1913 c -4.91478,-1.31691 -11.82187,3.17032 -11.82187,10.26421 0,-7.26817 -3.45065,-17.96848 -14.28665,-17.96848 -7.1877,0 -12.99903,5.72177 -12.99903,12.98993 0,-7.26816 -5.811325,-17.39357 -12.999016,-17.39357 -7.187697,0 -12.99903,5.87641 -12.99903,13.14457 l 0,-46.23794 c 0,-7.26816 -5.811335,-13.14456 -12.999032,-13.14456 -7.187697,0 -12.99903,5.8764 -12.99903,13.14456 l 0,79.17666 0,0 c 0.458788,29.07267 24.009971,52.26896 52.760738,51.80503 28.13909,-0.30928 46.45152,-23.4523 48.87081,-51.80503 0,-18.11515 1.32088,-29.92703 -10.52789,-33.97538 z" id="path7" style="fill:#f4f4f4;fill-opacity:1;stroke:#ffffff;stroke-width:0;stroke-miterlimit:4;stroke-dasharray:none;stroke-opacity:1" sodipodi:nodetypes="cccccccccsscscssscccc"/>
    </g>
  </g>
</svg>